<?xml version="1.0" standalone="no"?><!DOCTYPE svg PUBLIC "-//W3C//DTD SVG 1.1//EN" "http://www.w3.org/Graphics/SVG/1.1/DTD/svg11.dtd"><svg t="1622261806652" class="icon" viewBox="0 0 1024 1024" version="1.1" xmlns="http://www.w3.org/2000/svg" p-id="1526" xmlns:xlink="http://www.w3.org/1999/xlink" width="200" height="200"><defs><style type="text/css"></style></defs><path d="M799.030303 747.830303H231.175758c-21.721212 0-38.787879-17.066667-38.787879-38.787879v-79.127272c0-9.309091 6.206061-20.169697 13.963636-24.824243 31.030303-21.721212 49.648485-57.406061 49.648485-93.090909 0-37.236364-18.618182-72.921212-51.2-94.642424-9.309091-6.206061-12.412121-13.963636-12.412121-23.272728v-79.127272c0-21.721212 17.066667-38.787879 38.787879-38.787879h567.854545c21.721212 0 38.787879 17.066667 38.787879 38.787879v76.024242c0 10.860606-6.206061 20.169697-15.515152 24.824243-32.581818 18.618182-52.751515 55.854545-52.751515 96.193939s20.169697 77.575758 54.30303 96.193939c1.551515 0 1.551515 1.551515 3.103031 3.103031 4.654545 4.654545 10.860606 10.860606 10.860606 21.721212v76.024242c0 21.721212-17.066667 38.787879-38.787879 38.787879z m-575.612121-116.363636v77.575757c0 3.10303 4.654545 7.757576 7.757576 7.757576h567.854545c3.10303 0 7.757576-4.654545 7.757576-7.757576v-74.472727c-41.890909-24.824242-68.266667-71.369697-68.266667-122.569697 0-51.2 26.375758-97.745455 68.266667-122.569697v-74.472727c0-3.10303-4.654545-7.757576-7.757576-7.757576H231.175758c-3.10303 0-7.757576 4.654545-7.757576 7.757576v77.575757c40.339394 27.927273 63.612121 72.921212 63.612121 119.466667 0 48.09697-23.272727 91.539394-63.612121 119.466667z m-3.10303 1.551515zM806.787879 390.981818z m1.551515-3.10303s0 1.551515 0 0c0 1.551515 0 0 0 0z" fill="#333333" p-id="1527"></path><path d="M636.121212 460.8H392.533333c-9.309091 0-15.515152-6.206061-15.515151-15.515152s6.206061-15.515152 15.515151-15.515151H636.121212c9.309091 0 15.515152 6.206061 15.515152 15.515151s-6.206061 15.515152-15.515152 15.515152zM636.121212 594.230303H392.533333c-9.309091 0-15.515152-6.206061-15.515151-15.515151s6.206061-15.515152 15.515151-15.515152H636.121212c9.309091 0 15.515152 6.206061 15.515152 15.515152s-6.206061 15.515152-15.515152 15.515151z" fill="#CD313F" p-id="1528"></path></svg>