<?xml version="1.0" standalone="no"?><!DOCTYPE svg PUBLIC "-//W3C//DTD SVG 1.1//EN" "http://www.w3.org/Graphics/SVG/1.1/DTD/svg11.dtd"><svg t="1622261813652" class="icon" viewBox="0 0 1024 1024" version="1.1" xmlns="http://www.w3.org/2000/svg" p-id="1665" xmlns:xlink="http://www.w3.org/1999/xlink" width="200" height="200"><defs><style type="text/css"></style></defs><path d="M484.072727 608.193939c-125.672727 0-226.521212-102.4-226.521212-226.521212S358.4 155.151515 484.072727 155.151515s226.521212 102.4 226.521212 226.521212-102.4 226.521212-226.521212 226.521212z m0-422.012121c-108.606061 0-195.490909 88.436364-195.490909 195.490909s88.436364 195.490909 195.490909 195.490909c108.606061 0 195.490909-88.436364 195.490909-195.490909S591.127273 186.181818 484.072727 186.181818z" fill="#333333" p-id="1666"></path><path d="M231.175758 816.09697c-9.309091 0-15.515152-6.206061-15.515152-15.515152 0-125.672727 102.4-226.521212 226.521212-226.521212 9.309091 0 15.515152 6.206061 15.515152 15.515152s-6.206061 15.515152-15.515152 15.515151c-108.606061 0-195.490909 88.436364-195.490909 195.490909 0 9.309091-7.757576 15.515152-15.515151 15.515152z" fill="#333333" p-id="1667"></path><path d="M668.70303 758.690909c-24.824242 0-44.993939-20.169697-44.993939-44.993939 0-24.824242 20.169697-44.993939 44.993939-44.99394S713.69697 688.872727 713.69697 713.69697c0 24.824242-20.169697 44.993939-44.99394 44.993939z m0-58.957576c-7.757576 0-13.963636 6.206061-13.963636 13.963637s6.206061 13.963636 13.963636 13.963636 13.963636-6.206061 13.963637-13.963636-6.206061-13.963636-13.963637-13.963637z" fill="#CD313F" p-id="1668"></path><path d="M695.078788 844.024242h-52.751515c-9.309091 0-15.515152-6.206061-15.515152-15.515151v-10.860606l-9.309091 9.309091c-6.206061 6.206061-15.515152 6.206061-21.721212 0L558.545455 789.721212c-6.206061-6.206061-6.206061-15.515152 0-21.721212l10.860606-10.860606h-17.066667c-9.309091 0-15.515152-6.206061-15.515152-15.515152v-52.751515c0-9.309091 6.206061-15.515152 15.515152-15.515151h13.963636l-9.309091-9.309091c-6.206061-6.206061-6.206061-15.515152 0-21.721212l37.236364-37.236364c3.10303-3.10303 6.206061-4.654545 10.860606-4.654545 4.654545 0 7.757576 1.551515 10.860606 4.654545l9.309091 9.309091v-13.963636c0-9.309091 6.206061-15.515152 15.515152-15.515152h52.751515c9.309091 0 15.515152 6.206061 15.515151 15.515152v17.066666l10.860606-10.860606c6.206061-6.206061 15.515152-6.206061 21.721212 0l37.236364 37.236364c6.206061 6.206061 6.206061 15.515152 0 21.721212l-9.309091 9.309091h10.860606c9.309091 0 15.515152 6.206061 15.515152 15.515151v52.751516c0 9.309091-6.206061 15.515152-15.515152 15.515151h-13.963636l10.860606 10.860606c6.206061 6.206061 6.206061 15.515152 0 21.721212L744.727273 825.406061c-3.10303 3.10303-6.206061 4.654545-10.860606 4.654545-4.654545 0-7.757576-1.551515-10.860606-4.654545l-10.860606-10.860606v13.963636c-1.551515 9.309091-7.757576 15.515152-17.066667 15.515151z m-35.684849-31.030303h21.721213v-15.515151c0-6.206061 4.654545-12.412121 10.860606-15.515152 4.654545-1.551515 7.757576-3.10303 10.860606-4.654545 6.206061-3.10303 13.963636-1.551515 18.618181 3.10303l12.412122 12.412121 15.515151-15.515151-12.412121-12.412121c-4.654545-4.654545-6.206061-12.412121-3.10303-18.618182 1.551515-3.10303 3.10303-7.757576 4.654545-10.860606 1.551515-6.206061 7.757576-10.860606 15.515152-10.860606h15.515151v-21.721212h-15.515151c-6.206061 0-12.412121-4.654545-15.515152-10.860606-1.551515-3.10303-3.10303-7.757576-4.654545-10.860606-3.10303-6.206061-1.551515-12.412121 3.10303-17.066667l10.860606-10.860606-15.515151-15.515152-9.309091 9.309091c-4.654545 4.654545-12.412121 6.206061-18.618182 3.10303-4.654545-3.10303-9.309091-4.654545-13.963637-6.20606-6.206061-1.551515-10.860606-7.757576-10.860606-15.515152v-13.963636h-21.721212v12.412121c0 6.206061-4.654545 12.412121-10.860606 15.515152-4.654545 1.551515-9.309091 3.10303-13.963636 6.20606-6.206061 3.10303-13.963636 1.551515-18.618182-3.10303l-7.757576-7.757576-15.515151 15.515152 7.757575 7.757576c4.654545 4.654545 6.206061 12.412121 3.103031 18.618181-1.551515 4.654545-4.654545 9.309091-6.206061 13.963637-1.551515 6.206061-7.757576 10.860606-15.515151 10.860606h-12.412122v21.721212h13.963637c6.206061 0 12.412121 4.654545 15.515151 10.860606 1.551515 4.654545 3.10303 9.309091 6.206061 13.963636 3.10303 6.206061 3.10303 13.963636-3.10303 18.618182l-9.309091 9.309091 15.515151 15.515152 10.860606-10.860606c4.654545-4.654545 12.412121-6.206061 17.066667-3.103031 3.10303 1.551515 7.757576 3.10303 10.860606 4.654546 6.206061 1.551515 10.860606 7.757576 10.860606 15.515151v12.412121z" fill="#CD313F" p-id="1669"></path></svg>