<?xml version="1.0" standalone="no"?><!DOCTYPE svg PUBLIC "-//W3C//DTD SVG 1.1//EN" "http://www.w3.org/Graphics/SVG/1.1/DTD/svg11.dtd"><svg t="1622261663291" class="icon" viewBox="0 0 1024 1024" version="1.1" xmlns="http://www.w3.org/2000/svg" p-id="1108" xmlns:xlink="http://www.w3.org/1999/xlink" width="200" height="200"><defs><style type="text/css"></style></defs><path d="M805.236364 310.30303H283.927273c-9.309091 0-15.515152-6.206061-15.515152-15.515151s6.206061-15.515152 15.515152-15.515152h519.757575c9.309091 0 15.515152 6.206061 15.515152 15.515152s-6.206061 15.515152-13.963636 15.515151zM805.236364 532.169697H283.927273c-9.309091 0-15.515152-6.206061-15.515152-15.515152s6.206061-15.515152 15.515152-15.515151h519.757575c9.309091 0 15.515152 6.206061 15.515152 15.515151s-6.206061 15.515152-13.963636 15.515152zM805.236364 740.072727H283.927273c-9.309091 0-15.515152-6.206061-15.515152-15.515151s6.206061-15.515152 15.515152-15.515152h519.757575c9.309091 0 15.515152 6.206061 15.515152 15.515152s-6.206061 15.515152-13.963636 15.515151z" fill="#333333" p-id="1109"></path><path d="M224.969697 310.30303h-18.618182c-9.309091 0-15.515152-6.206061-15.515151-15.515151s6.206061-15.515152 15.515151-15.515152h18.618182c9.309091 0 15.515152 6.206061 15.515151 15.515152s-7.757576 15.515152-15.515151 15.515151zM224.969697 532.169697h-18.618182c-9.309091 0-15.515152-6.206061-15.515151-15.515152s6.206061-15.515152 15.515151-15.515151h18.618182c9.309091 0 15.515152 6.206061 15.515151 15.515151s-7.757576 15.515152-15.515151 15.515152zM224.969697 740.072727h-18.618182c-9.309091 0-15.515152-6.206061-15.515151-15.515151s6.206061-15.515152 15.515151-15.515152h18.618182c9.309091 0 15.515152 6.206061 15.515151 15.515152s-7.757576 15.515152-15.515151 15.515151z" fill="#CD313F" p-id="1110"></path></svg>