<?xml version="1.0" standalone="no"?><!DOCTYPE svg PUBLIC "-//W3C//DTD SVG 1.1//EN" "http://www.w3.org/Graphics/SVG/1.1/DTD/svg11.dtd"><svg t="1622261674530" class="icon" viewBox="0 0 1024 1024" version="1.1" xmlns="http://www.w3.org/2000/svg" p-id="1245" xmlns:xlink="http://www.w3.org/1999/xlink" width="200" height="200"><defs><style type="text/css"></style></defs><path d="M650.084848 726.109091c-41.890909 0-76.024242-34.133333-76.024242-76.024243s34.133333-76.024242 76.024242-76.024242 76.024242 34.133333 76.024243 76.024242c1.551515 18.618182-6.206061 37.236364-20.169697 52.751516-13.963636 13.963636-34.133333 23.272727-55.854546 23.272727z m0-121.018182c-24.824242 0-44.993939 20.169697-44.993939 44.993939 0 24.824242 20.169697 44.993939 44.993939 44.99394 12.412121 0 24.824242-4.654545 34.133334-13.963636 7.757576-7.757576 12.412121-18.618182 10.860606-29.478788 0-26.375758-20.169697-46.545455-44.99394-46.545455z" fill="#CD313F" p-id="1246"></path><path d="M740.072727 791.272727c-6.206061 0-12.412121-4.654545-13.963636-10.860606-10.860606-31.030303-38.787879-51.2-71.369697-51.2-32.581818 0-62.060606 21.721212-69.818182 51.2-3.10303 7.757576-10.860606 12.412121-18.618182 10.860606-7.757576-3.10303-12.412121-10.860606-10.860606-18.618182 12.412121-43.442424 54.30303-72.921212 100.848485-72.921212 44.993939 0 85.333333 27.927273 99.29697 72.921212 3.10303 7.757576-1.551515 17.066667-9.309091 20.169697-3.10303-1.551515-4.654545-1.551515-6.206061-1.551515z" fill="#CD313F" p-id="1247"></path><path d="M491.830303 795.927273H316.509091c-26.375758 0-46.545455-20.169697-46.545455-44.99394V262.206061c0-24.824242 21.721212-44.993939 46.545455-44.99394h353.745454c26.375758 0 46.545455 20.169697 46.545455 44.99394v245.139394c0 9.309091-6.206061 15.515152-15.515152 15.515151s-15.515152-6.206061-15.515151-15.515151V262.206061c0-9.309091-7.757576-13.963636-15.515152-13.963637H316.509091c-9.309091 0-15.515152 7.757576-15.515152 13.963637v488.727272c0 9.309091 7.757576 13.963636 15.515152 13.963637h175.321212c9.309091 0 15.515152 6.206061 15.515152 15.515151s-6.206061 15.515152-15.515152 15.515152z" fill="#333333" p-id="1248"></path><path d="M567.854545 398.739394H359.951515c-9.309091 0-15.515152-6.206061-15.515151-15.515152s6.206061-15.515152 15.515151-15.515151h207.90303c9.309091 0 15.515152 6.206061 15.515152 15.515151s-6.206061 15.515152-15.515152 15.515152z" fill="#333333" p-id="1249"></path><path d="M473.212121 512h-113.260606c-9.309091 0-15.515152-6.206061-15.515151-15.515152s6.206061-15.515152 15.515151-15.515151h113.260606c9.309091 0 15.515152 6.206061 15.515152 15.515151s-6.206061 15.515152-15.515152 15.515152z" fill="#333333" p-id="1250"></path></svg>