<?xml version="1.0" standalone="no"?><!DOCTYPE svg PUBLIC "-//W3C//DTD SVG 1.1//EN" "http://www.w3.org/Graphics/SVG/1.1/DTD/svg11.dtd"><svg t="1622363421906" class="icon" viewBox="0 0 1024 1024" version="1.1" xmlns="http://www.w3.org/2000/svg" p-id="2957" xmlns:xlink="http://www.w3.org/1999/xlink" width="128" height="128"><defs><style type="text/css"></style></defs><path d="M531.1 523.8l-9.4-1.6V190.7h117v-34h-117V82.8h-68.1v442.4l-8.5 2.2C355.2 550.8 292.4 632 292.4 725.1c0 112.6 91.6 204.2 204.2 204.2s204.2-91.6 204.2-204.2c0-99.9-71.4-184.5-169.7-201.3z m-40.2 39.8c87.6 0 158.8 66.2 158.8 147.5 0 6.3-5.1 11.3-11.3 11.3-6.3 0-11.3-5.1-11.3-11.3 0-68.8-61.1-124.8-136.1-124.8-6.3 0-11.3-5.1-11.3-11.3-0.1-6.3 4.9-11.4 11.2-11.4z m-1.6 312c-37.5 0-68.1-30.5-68.1-68.1s30.5-68.1 68.1-68.1 68.1 30.5 68.1 68.1-30.5 68.1-68.1 68.1z m150.9-104.9c-7.8 0-14.2-6.3-14.2-14.2 0-7.8 6.3-14.2 14.2-14.2s14.2 6.3 14.2 14.2c0 7.8-6.4 14.2-14.2 14.2z" fill="#FFFFFF" p-id="2958"></path><path d="M544.3 503.3V213.4h117V134h-117V60.1H430.9v447.7C335.5 536.5 269.7 624.6 269.7 725c0 125.1 101.8 226.9 226.9 226.9S723.5 850.1 723.5 725c0-107.7-74.8-199.4-179.2-221.7z m-47.7 426c-112.6 0-204.2-91.6-204.2-204.2 0-93 62.8-174.3 152.7-197.7l8.5-2.2V82.8h68.1v73.9h117v34h-117v331.5l9.4 1.6c98.3 16.7 169.7 101.4 169.7 201.2 0 112.7-91.6 204.3-204.2 204.3z" fill="" p-id="2959"></path><path d="M489.3 807.6m-45.4 0a45.4 45.4 0 1 0 90.8 0 45.4 45.4 0 1 0-90.8 0Z" fill="#FFFFFF" p-id="2960"></path><path d="M489.3 739.5c-37.5 0-68.1 30.5-68.1 68.1s30.5 68.1 68.1 68.1 68.1-30.5 68.1-68.1-30.5-68.1-68.1-68.1z m0 113.4c-25 0-45.4-20.4-45.4-45.4s20.4-45.4 45.4-45.4 45.4 20.4 45.4 45.4c0 25.1-20.3 45.4-45.4 45.4zM490.9 586.3c75.1 0 136.1 56 136.1 124.8 0 6.3 5.1 11.3 11.3 11.3 6.3 0 11.3-5.1 11.3-11.3 0-81.3-71.2-147.5-158.8-147.5-6.3 0-11.3 5.1-11.3 11.3 0.1 6.4 5.1 11.4 11.4 11.4z" fill="" p-id="2961"></path><path d="M640.2 756.5m-14.2 0a14.2 14.2 0 1 0 28.4 0 14.2 14.2 0 1 0-28.4 0Z" fill="" p-id="2962"></path></svg>