<?xml version="1.0" standalone="no"?><!DOCTYPE svg PUBLIC "-//W3C//DTD SVG 1.1//EN" "http://www.w3.org/Graphics/SVG/1.1/DTD/svg11.dtd"><svg t="1622444051433" class="icon" viewBox="0 0 1024 1024" version="1.1" xmlns="http://www.w3.org/2000/svg" p-id="1766" xmlns:xlink="http://www.w3.org/1999/xlink" width="128" height="128"><defs><style type="text/css"></style></defs><path d="M510.1 81.6C272.8 81.6 80.5 274 80.5 511.3c0 237.3 192.4 429.6 429.6 429.6 237.3 0 429.6-192.4 429.6-429.6 0-237.3-192.3-429.7-429.6-429.7z m245.1 299.3L464.7 671.4c-9.6 9.6-25.3 9.6-34.9 0-1.5-1.5-2.7-3.2-3.7-5-0.2-0.2-0.4-0.3-0.5-0.4L277.9 518.3c-10.2-10.2-10.2-26.8 0-36.9 10.2-10.2 26.8-10.2 36.9 0l135.1 135.1 270.4-270.4c9.6-9.6 25.3-9.6 34.9 0 9.5 9.6 9.5 25.3 0 34.8z" fill="" p-id="1767"></path><path d="M720.3 346.1L449.9 616.5 314.8 481.4c-10.2-10.2-26.8-10.2-36.9 0-10.2 10.2-10.2 26.8 0 36.9L425.6 666c0.2 0.2 0.4 0.3 0.5 0.4 1 1.8 2.2 3.5 3.7 5 9.6 9.6 25.3 9.6 34.9 0l290.5-290.5c9.6-9.6 9.6-25.3 0-34.9-9.6-9.5-25.3-9.5-34.9 0.1z" fill="#FFFFFF" p-id="1768"></path></svg>