<?xml version="1.0" standalone="no"?><!DOCTYPE svg PUBLIC "-//W3C//DTD SVG 1.1//EN" "http://www.w3.org/Graphics/SVG/1.1/DTD/svg11.dtd"><svg t="1622261656519" class="icon" viewBox="0 0 1024 1024" version="1.1" xmlns="http://www.w3.org/2000/svg" p-id="969" xmlns:xlink="http://www.w3.org/1999/xlink" width="200" height="200"><defs><style type="text/css"></style></defs><path d="M544.581818 791.272727h-57.40606c-15.515152 0-27.927273-12.412121-27.927273-27.927272v-37.236364l-18.618182 32.581818c-7.757576 13.963636-24.824242 18.618182-38.787879 10.860606l-49.648485-29.478788c-6.206061-3.10303-10.860606-9.309091-12.412121-17.066666-1.551515-7.757576-1.551515-15.515152 3.10303-21.721213l18.618182-32.581818-32.581818 18.618182c-13.963636 7.757576-31.030303 3.10303-38.787879-10.860606l-29.478788-49.648485c-3.10303-6.206061-4.654545-13.963636-3.10303-21.721212 1.551515-7.757576 6.206061-13.963636 12.412121-17.066667l32.581819-18.618181h-37.236364c-15.515152 0-27.927273-12.412121-27.927273-27.927273v-57.406061c0-15.515152 12.412121-27.927273 27.927273-27.927272h37.236364l-32.581819-18.618182c-13.963636-7.757576-18.618182-24.824242-10.860606-38.787879l29.478788-49.648485c7.757576-13.963636 24.824242-18.618182 38.787879-10.860606l32.581818 18.618182-18.618182-34.133333c-7.757576-13.963636-3.10303-31.030303 10.860606-38.787879l49.648485-29.478788c13.963636-7.757576 31.030303-3.10303 38.787879 10.860606l18.618182 32.581818v-37.236364c0-15.515152 12.412121-27.927273 27.927273-27.927272h57.40606c15.515152 0 27.927273 12.412121 27.927273 27.927272v37.236364l18.618182-32.581818c3.10303-6.206061 9.309091-10.860606 17.066666-12.412121 7.757576-1.551515 15.515152-1.551515 21.721213 3.10303l49.648484 29.478788c13.963636 7.757576 18.618182 24.824242 10.860606 38.787879L671.806061 356.848485l32.581818-18.618182c6.206061-3.10303 13.963636-4.654545 21.721212-3.10303 7.757576 1.551515 13.963636 6.206061 17.066667 12.412121l29.478787 49.648485c7.757576 13.963636 3.10303 31.030303-10.860606 38.787879L729.212121 454.593939h37.236364c15.515152 0 27.927273 12.412121 27.927273 27.927273v57.406061c0 15.515152-12.412121 27.927273-27.927273 27.927272H729.212121l23.272727 13.963637c9.309091 4.654545 15.515152 13.963636 18.618182 23.272727 3.10303 10.860606 1.551515 20.169697-4.654545 29.478788l-23.272727 40.339394c-3.10303 6.206061-9.309091 10.860606-17.066667 12.412121-7.757576 1.551515-15.515152 1.551515-21.721212-3.10303l-32.581818-18.618182 18.618181 32.581818c3.10303 6.206061 4.654545 13.963636 3.103031 21.721212-1.551515 7.757576-6.206061 13.963636-12.412121 17.066667l-49.648485 29.478788c-6.206061 3.10303-13.963636 4.654545-21.721212 3.10303-7.757576-1.551515-13.963636-6.206061-17.066667-12.412121L574.060606 724.557576v37.236363c-1.551515 17.066667-13.963636 29.478788-29.478788 29.478788z m-54.30303-31.030303H543.030303v-44.993939c0-12.412121 7.757576-23.272727 20.169697-27.927273 12.412121-3.10303 24.824242 1.551515 31.030303 12.412121l23.272727 40.339394 44.99394-26.375757-23.272728-40.339394c-6.206061-10.860606-4.654545-24.824242 4.654546-34.133334 9.309091-9.309091 23.272727-10.860606 34.133333-4.654545l40.339394 23.272727 21.721212-38.787879c1.551515-1.551515 1.551515-4.654545 1.551515-6.20606s-1.551515-3.10303-3.10303-4.654546L705.939394 589.575758c-10.860606-6.206061-17.066667-18.618182-12.412121-31.030303 3.10303-12.412121 13.963636-20.169697 27.927272-20.169697h44.99394v-52.751516h-44.99394c-12.412121 0-23.272727-7.757576-27.927272-20.169697-3.10303-12.412121 1.551515-24.824242 12.412121-31.030303l40.339394-23.272727-26.375758-44.993939-41.890909 21.721212c-10.860606 6.206061-24.824242 4.654545-34.133333-4.654546-9.309091-9.309091-10.860606-23.272727-4.654546-34.133333l23.272728-40.339394-44.99394-26.375757-23.272727 40.339394c-6.206061 10.860606-18.618182 17.066667-31.030303 12.412121-12.412121-3.10303-20.169697-13.963636-20.169697-27.927273V263.757576h-52.751515v44.993939c0 12.412121-7.757576 23.272727-20.169697 27.927273-12.412121 3.10303-24.824242-1.551515-31.030303-12.412121l-23.272727-40.339394-46.545455 26.375757 23.272727 40.339394c6.206061 10.860606 4.654545 24.824242-4.654545 34.133334-9.309091 9.309091-23.272727 10.860606-34.133333 4.654545l-40.339394-23.272727-26.375758 44.993939 40.339394 23.272727c10.860606 6.206061 17.066667 18.618182 12.412121 31.030303s-13.963636 20.169697-27.927273 20.169697h-44.993939v52.751516h44.993939c12.412121 0 23.272727 7.757576 27.927273 20.169697 3.10303 12.412121-1.551515 24.824242-12.412121 31.030303l-40.339394 23.272727 26.375758 44.993939 40.339394-23.272727c10.860606-6.206061 24.824242-4.654545 34.133333 4.654545 9.309091 9.309091 10.860606 23.272727 4.654545 34.133334L369.260606 713.69697l44.993939 26.375757 23.272728-40.339394c6.206061-10.860606 18.618182-17.066667 31.030303-12.412121 12.412121 3.10303 20.169697 13.963636 20.169697 27.927273V760.242424z m276.169697-274.618182z" fill="#333333" p-id="970"></path><path d="M516.654545 639.224242c-69.818182 0-127.224242-57.406061-127.224242-127.224242s57.406061-127.224242 127.224242-127.224242 127.224242 57.406061 127.224243 127.224242-58.957576 127.224242-127.224243 127.224242z m0-223.418181c-52.751515 0-96.193939 43.442424-96.193939 96.193939s43.442424 96.193939 96.193939 96.193939 96.193939-43.442424 96.19394-96.193939-44.993939-96.193939-96.19394-96.193939z" fill="#CD313F" p-id="971"></path></svg>