<?xml version="1.0" standalone="no"?><!DOCTYPE svg PUBLIC "-//W3C//DTD SVG 1.1//EN" "http://www.w3.org/Graphics/SVG/1.1/DTD/svg11.dtd"><svg t="1622274320508" class="icon" viewBox="0 0 1024 1024" version="1.1" xmlns="http://www.w3.org/2000/svg" p-id="828" xmlns:xlink="http://www.w3.org/1999/xlink" width="200" height="200"><defs><style type="text/css"></style></defs><path d="M513.551515 856.436364c-193.939394 0-350.642424-156.70303-350.642424-350.642425C162.909091 311.854545 319.612121 155.151515 513.551515 155.151515c193.939394 0 350.642424 156.70303 350.642424 350.642424 0 193.939394-156.70303 350.642424-350.642424 350.642425z m0-670.254546c-176.872727 0-319.612121 142.739394-319.612121 319.612121s142.739394 319.612121 319.612121 319.612122S833.163636 682.666667 833.163636 505.793939 690.424242 186.181818 513.551515 186.181818z" fill="#333333" p-id="829"></path><path d="M451.490909 629.915152c-7.757576 0-15.515152-1.551515-23.272727-6.206061-15.515152-7.757576-23.272727-23.272727-23.272727-40.339394v-150.49697c0-17.066667 9.309091-32.581818 23.272727-40.339394 15.515152-7.757576 32.581818-7.757576 46.545454 0l128.775758 76.024243c13.963636 6.206061 23.272727 20.169697 24.824242 35.684848 1.551515 17.066667-7.757576 34.133333-23.272727 43.442424l-130.327273 76.024243c-7.757576 3.10303-15.515152 6.206061-23.272727 6.206061z m0-212.557576c-3.10303 0-6.206061 1.551515-7.757576 1.551515-4.654545 3.10303-7.757576 7.757576-7.757575 13.963636v150.49697c0 6.206061 3.10303 10.860606 7.757575 13.963636 1.551515 1.551515 7.757576 4.654545 15.515152 0l130.327273-76.024242c6.206061-3.10303 9.309091-9.309091 7.757575-13.963636 0-3.10303-1.551515-7.757576-6.20606-9.309091L589.575758 496.484848l-130.327273-76.024242c-3.10303-1.551515-4.654545-3.10303-7.757576-3.10303z" fill="#CD313F" p-id="830"></path></svg>