<?xml version="1.0" standalone="no"?><!DOCTYPE svg PUBLIC "-//W3C//DTD SVG 1.1//EN" "http://www.w3.org/Graphics/SVG/1.1/DTD/svg11.dtd"><svg t="1622261636257" class="icon" viewBox="0 0 1024 1024" version="1.1" xmlns="http://www.w3.org/2000/svg" p-id="828" xmlns:xlink="http://www.w3.org/1999/xlink" width="200" height="200"><defs><style type="text/css"></style></defs><path d="M519.757576 857.987879h-201.69697c-27.927273 0-51.2-21.721212-51.2-48.09697v-558.545454c0-26.375758 23.272727-48.09697 51.2-48.09697h403.393939c27.927273 0 51.2 21.721212 51.2 48.09697v279.272727c0 9.309091-6.206061 15.515152-15.515151 15.515151s-15.515152-6.206061-15.515152-15.515151v-279.272727c0-9.309091-9.309091-17.066667-20.169697-17.066667h-403.393939c-10.860606 0-20.169697 7.757576-20.169697 17.066667v558.545454c0 9.309091 9.309091 17.066667 20.169697 17.066667h201.69697c9.309091 0 15.515152 6.206061 15.515151 15.515151s-6.206061 15.515152-15.515151 15.515152z" fill="#333333" p-id="829"></path><path d="M606.642424 404.945455H369.260606c-9.309091 0-15.515152-6.206061-15.515151-15.515152s6.206061-15.515152 15.515151-15.515151h237.381818c9.309091 0 15.515152 6.206061 15.515152 15.515151s-7.757576 15.515152-15.515152 15.515152zM498.036364 533.721212h-128.775758c-9.309091 0-15.515152-6.206061-15.515151-15.515151s6.206061-15.515152 15.515151-15.515152h128.775758c9.309091 0 15.515152 6.206061 15.515151 15.515152s-6.206061 15.515152-15.515151 15.515151z" fill="#333333" p-id="830"></path><path d="M584.921212 833.163636c-4.654545 0-7.757576-1.551515-10.860606-4.654545-6.206061-6.206061-6.206061-15.515152 0-21.721212l172.218182-172.218182c6.206061-6.206061 15.515152-6.206061 21.721212 0s6.206061 15.515152 0 21.721212L595.781818 828.509091c-3.10303 3.10303-6.206061 4.654545-10.860606 4.654545z" fill="#CD313F" p-id="831"></path><path d="M778.860606 833.163636H588.024242c-9.309091 0-15.515152-7.757576-15.515151-15.515151 0-9.309091 6.206061-15.515152 15.515151-15.515152h190.836364c9.309091 0 15.515152 7.757576 15.515152 15.515152s-6.206061 15.515152-15.515152 15.515151z" fill="#CD313F" p-id="832"></path></svg>