<?xml version="1.0" standalone="no"?><!DOCTYPE svg PUBLIC "-//W3C//DTD SVG 1.1//EN" "http://www.w3.org/Graphics/SVG/1.1/DTD/svg11.dtd"><svg t="1622363404971" class="icon" viewBox="0 0 1024 1024" version="1.1" xmlns="http://www.w3.org/2000/svg" p-id="1624" xmlns:xlink="http://www.w3.org/1999/xlink" width="128" height="128"><defs><style type="text/css"></style></defs><path d="M742 336c0-135.6-110.3-245.9-245.9-245.9S250.3 200.4 250.3 336c0 135.6 110.3 245.9 245.9 245.9S742 471.5 742 336z m-75.4 28.2c9.6 0 17.3 7.8 17.3 17.3 0 9.6-7.8 17.3-17.3 17.3-9.6 0-17.3-7.8-17.3-17.3 0-9.6 7.8-17.3 17.3-17.3z m-300.8 94.9c-2.7-2.6-5.4-5.2-7.9-7.9-3.9-4.1-3.7-10.6 0.4-14.5 4.1-3.9 10.6-3.7 14.5 0.4 2.3 2.4 4.7 4.8 7.2 7.1 32.1 30.2 72.9 46.9 115.1 46.9 51.5 0 100.3-24.7 134.1-67.7 3.5-4.5 9.9-5.2 14.4-1.7s5.2 9.9 1.7 14.4c-37.7 48-92.4 75.5-150.2 75.5-47.5 0-93.4-18.7-129.3-52.5z" fill="#FFFFFF" p-id="1625"></path><path d="M645.2 436c3.5-4.4 2.7-10.9-1.7-14.4-4.5-3.5-10.9-2.7-14.4 1.7-33.8 43-82.7 67.7-134.1 67.7-42.2 0-83.1-16.6-115.1-46.9-2.4-2.3-4.8-4.7-7.2-7.1-3.9-4.1-10.4-4.3-14.5-0.4s-4.3 10.4-0.4 14.5c2.6 2.7 5.2 5.3 7.9 7.9 35.9 33.8 81.7 52.5 129.2 52.5 57.9 0.1 112.6-27.5 150.3-75.5z" fill="" p-id="1626"></path><path d="M666.6 381.5m-17.3 0a17.3 17.3 0 1 0 34.6 0 17.3 17.3 0 1 0-34.6 0Z" fill="" p-id="1627"></path><path d="M142.9 958h720.4c0-181.8-125-333.3-290.6-367 109.6-33 189.8-134.8 189.8-255 0-146.9-119.5-266.3-266.3-266.3S229.8 189.1 229.8 336c0 122.4 83.1 225.8 195.8 256.8C263.9 629.5 142.9 779.1 142.9 958z m107.4-622c0-135.6 110.3-245.9 245.9-245.9S742 200.4 742 336c0 135.6-110.3 245.9-245.9 245.9S250.3 471.5 250.3 336z" fill="" p-id="1628"></path></svg>