<?xml version="1.0" encoding="utf-8"?>
<!-- Generator: Adobe Illustrator 18.1.0, SVG Export Plug-In . SVG Version: 6.00 Build 0)  -->
<svg version="1.1" id="图层_1" xmlns="http://www.w3.org/2000/svg" xmlns:xlink="http://www.w3.org/1999/xlink" x="0px" y="0px"
	 viewBox="0 0 500 500" enable-background="new 0 0 500 500" xml:space="preserve">
<g>
	<g>
		<rect x="279.1" y="211" fill="#EFF4FA" width="128.6" height="233.9"/>
		<rect x="371" y="224.7" fill="#D8E3F3" width="14.1" height="14.1"/>
		<rect x="371" y="253.4" fill="#D8E3F3" width="14.1" height="14.1"/>
		<rect x="371" y="282.1" fill="#D8E3F3" width="14.1" height="14.1"/>
	</g>
	<g>
		<polygon fill="#EFF4FA" points="81.6,444.9 81.6,149.9 122.3,114.5 122.3,444.9 		"/>
		<g>
			<path fill="#D8E3F3" d="M103.7,164.9H88.9c-1,0-1.9-0.8-1.9-1.9l0,0c0-1,0.8-1.9,1.9-1.9h14.8c1,0,1.9,0.8,1.9,1.9l0,0
				C105.5,164.1,104.7,164.9,103.7,164.9z"/>
			<path fill="#D8E3F3" d="M103.7,173.2H88.9c-1,0-1.9-0.8-1.9-1.9l0,0c0-1,0.8-1.9,1.9-1.9h14.8c1,0,1.9,0.8,1.9,1.9l0,0
				C105.5,172.4,104.7,173.2,103.7,173.2z"/>
			<path fill="#D8E3F3" d="M103.7,181.5H88.9c-1,0-1.9-0.8-1.9-1.9v0c0-1,0.8-1.9,1.9-1.9h14.8c1,0,1.9,0.8,1.9,1.9v0
				C105.5,180.7,104.7,181.5,103.7,181.5z"/>
		</g>
	</g>
	<g>
		<polygon fill="#EFF4FA" points="441.4,275.1 441.4,449.1 400.7,449.1 400.7,310.6 		"/>
		<path fill="#D8E3F3" d="M422.8,325.5H408c-1,0-1.9-0.8-1.9-1.9l0,0c0-1,0.8-1.9,1.9-1.9h14.8c1,0,1.9,0.8,1.9,1.9l0,0
			C424.7,324.7,423.8,325.5,422.8,325.5z"/>
		<path fill="#D8E3F3" d="M422.8,333.8H408c-1,0-1.9-0.8-1.9-1.9l0,0c0-1,0.8-1.9,1.9-1.9h14.8c1,0,1.9,0.8,1.9,1.9l0,0
			C424.7,333,423.8,333.8,422.8,333.8z"/>
		<path fill="#D8E3F3" d="M422.8,342.1H408c-1,0-1.9-0.8-1.9-1.9l0,0c0-1,0.8-1.9,1.9-1.9h14.8c1,0,1.9,0.8,1.9,1.9l0,0
			C424.7,341.3,423.8,342.1,422.8,342.1z"/>
	</g>
	<path fill="#D8E3F3" d="M103.7,189.8H88.9c-1,0-1.9-0.8-1.9-1.9l0,0c0-1,0.8-1.9,1.9-1.9h14.8c1,0,1.9,0.8,1.9,1.9l0,0
		C105.5,189,104.7,189.8,103.7,189.8z"/>
	<rect x="40.2" y="252.4" fill="#EFF4FA" width="127.5" height="192.5"/>
	<g>
		<path fill="#D8E3F3" d="M65.2,384.9c2.8-4.7,5.3-12.7-0.2-19c-5.5-6.3,0.8-9,1.6-17.1c0.8-8.1-9.8-8.8-9.2-19.2
			c0.2-4.2-2.7-11.2-7.6-11.7c-6.1-0.6-9.6,6.6-9.3,11.7c0.6,10.4-10,11.1-9.2,19.2c0.8,8.1,7.1,10.7,1.6,17.1
			c-5.5,6.3-3.1,14.3-0.2,19c2.8,4.7-3.3,12.8-0.5,19.9c2.8,7,8.9,17.3,16.9,17.1c7.9,0.2,14.1-10.1,16.9-17.1
			C68.6,397.8,62.4,389.7,65.2,384.9z"/>
		<g>
			<g>
				<line fill="#9EB6DE" x1="49" y1="448.6" x2="49" y2="334.9"/>
				<path fill="#9EB6DE" d="M49.3,335v113.6h-0.5V335c0-0.2,0.1-0.3,0.3-0.3C49.2,334.7,49.3,334.8,49.3,335z"/>
			</g>
			<g>
				<line fill="#9EB6DE" x1="40.4" y1="348.9" x2="49" y2="359.6"/>
				<path fill="#9EB6DE" d="M49,359.9c-0.1,0-0.2,0-0.2-0.1l-8.6-10.8c-0.1-0.1-0.1-0.3,0-0.4c0.1-0.1,0.3-0.1,0.4,0l8.6,10.8
					c0.1,0.1,0.1,0.3,0,0.4C49.2,359.9,49.1,359.9,49,359.9z"/>
			</g>
			<g>
				<line fill="#9EB6DE" x1="49" y1="415" x2="59.2" y2="405.8"/>
				<path fill="#9EB6DE" d="M49,415.3c-0.1,0-0.1,0-0.2-0.1c-0.1-0.1-0.1-0.3,0-0.4l10.2-9.2c0.1-0.1,0.3-0.1,0.4,0
					c0.1,0.1,0.1,0.3,0,0.4l-10.2,9.2C49.2,415.2,49.1,415.3,49,415.3z"/>
			</g>
			<g>
				<line fill="#9EB6DE" x1="49" y1="342.2" x2="45.4" y2="338.3"/>
				<path fill="#9EB6DE" d="M49,342.5c-0.1,0-0.1,0-0.2-0.1l-3.7-3.9c-0.1-0.1-0.1-0.3,0-0.4c0.1-0.1,0.3-0.1,0.4,0l3.7,3.9
					c0.1,0.1,0.1,0.3,0,0.4C49.2,342.5,49.1,342.5,49,342.5z"/>
			</g>
			<g>
				<line fill="#9EB6DE" x1="49" y1="371.1" x2="58.5" y2="362.9"/>
				<path fill="#9EB6DE" d="M49,371.4c-0.1,0-0.1,0-0.2-0.1c-0.1-0.1-0.1-0.3,0-0.4l9.5-8.2c0.1-0.1,0.3-0.1,0.4,0
					c0.1,0.1,0.1,0.3,0,0.4l-9.5,8.2C49.2,371.4,49.1,371.4,49,371.4z"/>
			</g>
			<g>
				<line fill="#9EB6DE" x1="49" y1="386.5" x2="37.2" y2="374.3"/>
				<path fill="#9EB6DE" d="M49,386.8c-0.1,0-0.1,0-0.2-0.1L37,374.5c-0.1-0.1-0.1-0.3,0-0.4c0.1-0.1,0.3-0.1,0.4,0l11.8,12.2
					c0.1,0.1,0.1,0.3,0,0.4C49.2,386.7,49.1,386.8,49,386.8z"/>
			</g>
		</g>
	</g>
	<g>
		<path fill="#D8E3F3" d="M472.8,384.9c2.8-4.7,5.3-12.7-0.2-19c-5.5-6.3,0.8-9,1.6-17.1c0.8-8.1-9.8-8.8-9.2-19.2
			c0.2-4.2-2.7-11.2-7.6-11.7c-6.1-0.6-9.6,6.6-9.3,11.7c0.6,10.4-10,11.1-9.2,19.2c0.8,8.1,7.1,10.7,1.6,17.1
			c-5.5,6.3-3.1,14.3-0.2,19c2.8,4.7-3.3,12.8-0.5,19.9c2.8,7,8.9,17.3,16.9,17.1c7.9,0.2,14.1-10.1,16.9-17.1
			C476.1,397.8,470,389.7,472.8,384.9z"/>
		<g>
			<g>
				<line fill="#9EB6DE" x1="456.6" y1="448.6" x2="456.6" y2="334.9"/>
				<path fill="#9EB6DE" d="M456.9,335v113.6h-0.5V335c0-0.2,0.1-0.3,0.3-0.3C456.7,334.7,456.9,334.8,456.9,335z"/>
			</g>
			<g>
				<line fill="#9EB6DE" x1="448" y1="348.9" x2="456.6" y2="359.6"/>
				<path fill="#9EB6DE" d="M456.6,359.9c-0.1,0-0.2,0-0.2-0.1l-8.6-10.8c-0.1-0.1-0.1-0.3,0-0.4c0.1-0.1,0.3-0.1,0.4,0l8.6,10.8
					c0.1,0.1,0.1,0.3,0,0.4C456.7,359.9,456.7,359.9,456.6,359.9z"/>
			</g>
			<g>
				<line fill="#9EB6DE" x1="456.6" y1="415" x2="466.8" y2="405.8"/>
				<path fill="#9EB6DE" d="M456.6,415.3c-0.1,0-0.1,0-0.2-0.1c-0.1-0.1-0.1-0.3,0-0.4l10.2-9.2c0.1-0.1,0.3-0.1,0.4,0
					c0.1,0.1,0.1,0.3,0,0.4l-10.2,9.2C456.7,415.2,456.7,415.3,456.6,415.3z"/>
			</g>
			<g>
				<line fill="#9EB6DE" x1="456.6" y1="342.2" x2="452.9" y2="338.3"/>
				<path fill="#9EB6DE" d="M456.6,342.5c-0.1,0-0.1,0-0.2-0.1l-3.7-3.9c-0.1-0.1-0.1-0.3,0-0.4c0.1-0.1,0.3-0.1,0.4,0l3.7,3.9
					c0.1,0.1,0.1,0.3,0,0.4C456.7,342.5,456.7,342.5,456.6,342.5z"/>
			</g>
			<g>
				<line fill="#9EB6DE" x1="456.6" y1="371.1" x2="466.1" y2="362.9"/>
				<path fill="#9EB6DE" d="M456.6,371.4c-0.1,0-0.1,0-0.2-0.1c-0.1-0.1-0.1-0.3,0-0.4l9.5-8.2c0.1-0.1,0.3-0.1,0.4,0
					c0.1,0.1,0.1,0.3,0,0.4l-9.5,8.2C456.7,371.4,456.7,371.4,456.6,371.4z"/>
			</g>
			<g>
				<line fill="#9EB6DE" x1="456.6" y1="386.5" x2="444.8" y2="374.3"/>
				<path fill="#9EB6DE" d="M456.6,386.8c-0.1,0-0.1,0-0.2-0.1l-11.8-12.2c-0.1-0.1-0.1-0.3,0-0.4c0.1-0.1,0.3-0.1,0.4,0l11.8,12.2
					c0.1,0.1,0.1,0.3,0,0.4C456.7,386.7,456.7,386.8,456.6,386.8z"/>
			</g>
		</g>
	</g>
	<g>
		<path fill="#D8E3F3" d="M343,444.9H159.4c-11.4,0-20.6-9.2-20.6-20.6v-392c0-11.4,9.2-20.6,20.6-20.6H343
			c11.4,0,20.6,9.2,20.6,20.6v392C363.6,435.7,354.4,444.9,343,444.9z"/>
		<path fill="#FFFFFF" d="M341.3,25.4h-48.6v8.8c0,0.9-0.7,1.6-1.6,1.6h-74.2c-0.9,0-1.6-0.7-1.6-1.6v-8.8h-54.2
			c-6.2,0-11.3,4.9-11.3,11v386.6c0,6.1,5.1,11,11.3,11h180.3c6.2,0,11.3-4.9,11.3-11V36.4C352.6,30.4,347.6,25.4,341.3,25.4z"/>
		<rect x="188.1" y="75.2" fill="#D8E3F3" width="3.2" height="180.2"/>
		<circle fill="#EFF4FA" cx="189.7" cy="75.2" r="15.6"/>
		<path fill="#71BF86" d="M189.5,81.3c-0.9,0-1.7-0.4-2.3-1l-4.5-5.1c-0.5-0.6-0.5-1.5,0.1-2.1c0.6-0.5,1.5-0.5,2.1,0.1l4.5,5.1
			c0,0,0.1,0.1,0.1,0.1c0.1,0,0.1-0.1,0.1-0.1L202.8,59c0.5-0.7,1.4-0.8,2-0.4c0.7,0.5,0.8,1.4,0.4,2l-13.1,19.3
			c-0.5,0.8-1.4,1.3-2.3,1.3C189.7,81.3,189.6,81.3,189.5,81.3z"/>
		<circle fill="#EFF4FA" cx="189.7" cy="134.4" r="15.6"/>
		<path fill="#71BF86" d="M189.5,140.5c-0.9,0-1.7-0.4-2.3-1l-4.5-5.1c-0.5-0.6-0.5-1.5,0.1-2.1c0.6-0.5,1.5-0.5,2.1,0.1l4.5,5.1
			c0,0,0.1,0.1,0.1,0.1c0.1,0,0.1-0.1,0.1-0.1l13.1-19.3c0.5-0.7,1.4-0.8,2-0.4c0.7,0.5,0.8,1.4,0.4,2l-13.1,19.3
			c-0.5,0.8-1.4,1.3-2.3,1.3C189.7,140.5,189.6,140.5,189.5,140.5z"/>
		<circle fill="#EFF4FA" cx="189.7" cy="193.5" r="15.6"/>
		<circle fill="#EFF4FA" cx="189.7" cy="251.9" r="15.6"/>
		<g>
			<path fill="#D8E3F3" d="M307.8,69.8H228c-0.6,0-1.2-0.5-1.2-1.2v-2.8c0-0.6,0.5-1.2,1.2-1.2h79.8c0.6,0,1.2,0.5,1.2,1.2v2.8
				C309,69.3,308.5,69.8,307.8,69.8z"/>
			<path fill="#D8E3F3" d="M269.2,83.9H228c-0.6,0-1.2-0.5-1.2-1.2v-2.8c0-0.6,0.5-1.2,1.2-1.2h41.1c0.6,0,1.2,0.5,1.2,1.2v2.8
				C270.3,83.4,269.8,83.9,269.2,83.9z"/>
			<path fill="#D8E3F3" d="M307.8,129.3H228c-0.6,0-1.2-0.5-1.2-1.2v-2.8c0-0.6,0.5-1.2,1.2-1.2h79.8c0.6,0,1.2,0.5,1.2,1.2v2.8
				C309,128.8,308.5,129.3,307.8,129.3z"/>
			<path fill="#D8E3F3" d="M269.2,143.4H228c-0.6,0-1.2-0.5-1.2-1.2v-2.8c0-0.6,0.5-1.2,1.2-1.2h41.1c0.6,0,1.2,0.5,1.2,1.2v2.8
				C270.3,142.9,269.8,143.4,269.2,143.4z"/>
			<path fill="#D8E3F3" d="M307.8,188.8H228c-0.6,0-1.2-0.5-1.2-1.2v-2.8c0-0.6,0.5-1.2,1.2-1.2h79.8c0.6,0,1.2,0.5,1.2,1.2v2.8
				C309,188.3,308.5,188.8,307.8,188.8z"/>
			<path fill="#D8E3F3" d="M269.2,202.9H228c-0.6,0-1.2-0.5-1.2-1.2v-2.8c0-0.6,0.5-1.2,1.2-1.2h41.1c0.6,0,1.2,0.5,1.2,1.2v2.8
				C270.3,202.4,269.8,202.9,269.2,202.9z"/>
		</g>
		<path fill="#D8E3F3" d="M311.9,406.1H194c-3.2,0-5.9-2.6-5.9-5.9v-27.8c0-3.2,2.6-5.9,5.9-5.9h117.9c3.2,0,5.9,2.6,5.9,5.9v27.8
			C317.8,403.5,315.1,406.1,311.9,406.1z"/>
	</g>
	<g>
		<g>
			<g>
				
					<rect x="176.2" y="370" transform="matrix(0.3869 0.9221 -0.9221 0.3869 480.1033 84.4287)" fill="#9EB6DE" width="0.6" height="66.4"/>
				
					<rect x="143.3" y="402.9" transform="matrix(0.9255 0.3788 -0.3788 0.9255 165.9102 -36.8296)" fill="#9EB6DE" width="66.4" height="0.6"/>
				
					<rect x="176.2" y="370" transform="matrix(0.9242 0.3819 -0.3819 0.9242 167.3952 -36.863)" fill="#9EB6DE" width="0.6" height="66.4"/>
				
					<rect x="143.3" y="402.9" transform="matrix(0.3832 0.9237 -0.9237 0.3832 481.3879 85.6567)" fill="#9EB6DE" width="66.4" height="0.6"/>
			</g>
			<g>
				<path fill="#174470" d="M176.6,361.6c-23,0-41.6,18.6-41.6,41.6c0,23,18.6,41.6,41.6,41.6c23,0,41.6-18.6,41.6-41.6
					C218.2,380.3,199.6,361.6,176.6,361.6z M176.6,436.5c-18.3,0-33.2-14.9-33.2-33.2c0-18.3,14.9-33.2,33.2-33.2
					c18.3,0,33.2,14.9,33.2,33.2C209.8,421.6,194.9,436.5,176.6,436.5z"/>
			</g>
			<g>
				<rect x="175.9" y="370" fill="#9EB6DE" width="1.3" height="66.4"/>
				<rect x="143.3" y="402.6" fill="#9EB6DE" width="66.4" height="1.3"/>
				
					<rect x="143.3" y="402.6" transform="matrix(0.7071 0.7071 -0.7071 0.7071 336.8598 -6.7352)" fill="#9EB6DE" width="66.4" height="1.3"/>
				
					<rect x="175.9" y="370" transform="matrix(0.7071 0.7071 -0.7071 0.7071 336.8598 -6.7352)" fill="#9EB6DE" width="1.3" height="66.4"/>
			</g>
			<circle fill="#174470" cx="176.6" cy="402.9" r="4.3"/>
		</g>
		<path fill="#174470" d="M364.4,344.8c0.4,1.2,7.1,17.3,7.1,17.3l-20.2,13.5l-6.6-23.9L364.4,344.8z"/>
		<path fill="#259E8D" d="M120.2,329.7H86.1c-0.6,0-1.1-0.3-1.4-0.9l-5.2-9.9c-0.5-0.9,0-2.1,1.1-2.3h0c0.7-0.2,1.4,0.2,1.8,0.8
			l4.3,8.2c0.3,0.5,0.8,0.9,1.4,0.9h32.2c0.9,0,1.6,0.7,1.6,1.6l0,0C121.8,329,121.1,329.7,120.2,329.7z"/>
		<path fill="#41B592" d="M126.2,318.4H65.7c-1,0-1.7-0.8-1.7-1.7l0,0c0-1,0.8-1.7,1.7-1.7h60.5c1,0,1.7,0.8,1.7,1.7l0,0
			C127.9,317.6,127.1,318.4,126.2,318.4z"/>
		<g>
			<path fill="#F2A284" d="M278.9,181.2c1.7-3.8,2.9-14-6.8-17.6c-9.7-3.6-25.4-5.3-31.2,11.6c-5.7,16.9,4.5,27.1,5.1,27.7
				c0.6,0.6-0.2,1.3-0.9,3.6c-0.7,2.3-3,3-3,3l12.7,7.2c0,0,6.9-9.9,7.7-10.7c0.8-0.8,5.3,0.9,6.6,0.8c1-0.1,5.2-7.8,6.7-12.4l0,0
				c0,0,1.9-2,2.5-2.5c0.5-0.5-0.2-1.6-0.9-2.3c-0.7-0.7,0-4.6,0-4.7C277.8,183.7,278.3,182.4,278.9,181.2z"/>
			<path fill="#C83847" d="M303.1,240.6c0,0,6.5-0.8,10-3.9s13.7-0.5,15.4,1.9c1.8,2.4-2,8.1-3.8,7.7c-1.8-0.4,0.3-1.6,0.9-2.6
				c0.6-1.1,0.7-2.1-0.2-2.9c-0.9-0.7-1.3,1.9-3.5,3c-2.2,1.1-7,2.2-9.3,1.3c-2.3-1-7.5,0.3-7.5,0.3L303.1,240.6z"/>
			<path fill="#41B592" d="M238.9,222.3c-1.1,2.6-1,5.6-0.9,8.5c0.2,7.9,3.3,16.1,11.8,18.7c16.1,5.1,39.8,1.9,44.9,0.8
				c5.1-1.1,11.9-1.9,11.5-4.9c-0.4-3,0.2-8-3.3-8.2c-3.5-0.2-35.6,6.8-43.4-4.3c-3.2-4.6-5.2-11.4-9.6-15.1
				c-3.1-2.6-7.3-0.5-9.6,2.1C239.7,220.7,239.3,221.5,238.9,222.3z"/>
			<path fill="#B8DAAB" d="M238,211c0,0,3.3-4.1,6.7-3.1c3.4,1,11.6,6.9,11.6,8.3c0,1.4-1.5,5.9-1.5,5.9L238,211z"/>
			<path fill="#71BF86" d="M236.5,209.6c0,0-10.8-1.8-20.2,13.8c-9.4,15.6-17.6,38.2-18.7,44.6c-1.1,6.4-0.6,13.6,1.9,15.2
				c2.5,1.6,37,6.4,43,5.1c6-1.4,6-7.3,6-7.3s11.6-47,8.9-55.3C254.6,217.4,243.1,210.5,236.5,209.6z"/>
			<path fill="#41B592" d="M218.3,283.7c0,0,13.6-62,19.7-59c6,3,16.1,7.4,16.8,9.9c0.7,2.6-10.8,46.7-10.8,46.7l-1.4,0.1
				c0,0,11.6-46.9,10.9-47.5c-0.7-0.6-15.4-8.4-16.4-7.5c-0.9,0.9-7.4,17.8-11,30.8c-3.6,12.9-5.9,26.5-5.9,26.5H218.3z"/>
			<path fill="#41B592" d="M228,224.7c0,0-4.4,14.5,4.1,31.3c8.5,16.8,16.8,23.1,16.8,23.1l5.9-27.2L228,224.7z"/>
			<path fill="#71BF86" d="M228.8,221.4c-1.2,2.9-1,6.1-0.9,9.3c0.2,8.6,3.4,17.4,12.3,20.3c16.8,5.5,41.4,2.1,46.7,0.9
				c5.3-1.1,12.4-2.1,12-5.3c-0.5-3.2,0.2-8.7-3.4-8.9c-3.7-0.3-37,7.3-45.1-4.6c-3.4-5-5.4-12.4-10-16.4c-3.2-2.8-7.6-0.6-10,2.3
				C229.7,219.7,229.2,220.5,228.8,221.4z"/>
			<polygon fill="#C83847" points="262.4,206 253.2,204.3 257.5,212.8 			"/>
			<path fill="#41B592" d="M281.1,171.3c-0.1,0.7-0.6,0.9-1.4,0.8c-2.3-0.4-7.2-3-13.9-0.5c-6.2,2.3-8.1,11.6-9.5,18.3
				c-0.6,3.2-1.1,5.7-1.8,6.7c-2.2,2.9-10.8,3.5-15.3,1.2c-4.5-2.4-5-25.6,1.5-35.3c6.6-9.7,21-6.6,21-6.6
				C274.6,155.2,281.5,168.4,281.1,171.3z"/>
			<g>
				<path fill="#C83847" d="M271,199.5c-0.4,0-0.9,0-1.4-0.1c-1.7-0.2-2.4-1.8-2.4-1.9c-0.1-0.2,0-0.4,0.2-0.4
					c0.2-0.1,0.4,0,0.4,0.2l0,0c0,0.1,0.5,1.3,1.8,1.4c1.5,0.1,2.6,0,2.6,0c0.2,0,0.4,0.1,0.4,0.3c0,0.2-0.1,0.4-0.3,0.4
					C272.3,199.4,271.8,199.5,271,199.5z"/>
			</g>
			<ellipse fill="#12315C" cx="273.7" cy="183.7" rx="1" ry="1.6"/>
			<path fill="#12315C" d="M271.2,180.8c0.7-0.9,1.9-1.9,3.1-1.2c0.6,0.3,1.1-0.5,0.5-0.9c-1.6-1-3.3,0.1-4.3,1.4
				C270,180.6,270.8,181.3,271.2,180.8L271.2,180.8z"/>
			<g opacity="0.65">
				<path fill="#FFFFFF" d="M281.6,183.2c-0.7,6.2-1,9.5-1.9,10.5c-0.9,0.9-17.2,0.7-23.4-4.3c1.3-6.7,3.3-16,9.5-18.3
					c6.8-2.5,11.7,0.2,13.9,0.5C279.6,171.7,282.3,177,281.6,183.2z"/>
			</g>
			<path fill="#9EB6DE" d="M320.1,360.7c0,0,3,3.1,3.5,3.9c0.5,0.8,2.6,3.6,3.7,3.4c1.1-0.1,8.7-3.5,9.8-4.7
				c1.2-1.2,8.5-3.7,10.5-4.9c2-1.3,1.8-4.7,0.3-5.4c-1.4-0.8-5.8,1.7-7.6,2.3c-1.8,0.6-6.1,0.8-8.4,1.3c-2.4,0.5-4.3,0.6-5.2,0.1
				c-0.9-0.5-1.7-1-1.7-1L320.1,360.7z"/>
			<path fill="#12315C" d="M244,281.2c0,0,22.3-3.3,27.1,0c4.8,3.3,54,72.8,54,74.1c0,1.3-4.1,5.4-4.8,5.4c-0.7,0-25-13.7-39.3-34.8
				c-14.3-21.1-13.1-21.9-16.7-21.4c-3.6,0.5-37.7,1.6-36.4-5.7C229.2,291.4,244,281.2,244,281.2z"/>
			<path fill="#9EB6DE" d="M298.2,366.9c0,0,2.5,3.5,2.7,4.3c0.2,0.9,1.2,4.1,2.4,4.4s9.4-0.7,10.9-1.5c1.5-0.8,9.2-0.9,11.6-1.5
				s3.2-3.9,2.1-5.1c-1.1-1.1-6-0.1-8-0.1c-1.9,0-6-1.1-8.5-1.3c-2.4-0.2-4.3-0.7-5-1.4c-0.7-0.7-1.3-1.5-1.3-1.5L298.2,366.9z"/>
			<path fill="#1C3E95" d="M199.4,283c0,0-9.2,31.8,12.6,31.8c21.8,0,50.1-4.8,50.8-2.1c0.7,2.7,3.7,13.8,11.3,27.1
				c7.6,13.3,21.2,28.1,23.7,28.1s8.7-3.5,8-4.8c-0.7-1.3-29-74.1-35-78c-6-3.9-16.1-5.7-34.7-3.1S199.4,283,199.4,283z"/>
		</g>
		<g>
			<g>
				
					<rect x="384.2" y="370" transform="matrix(0.3869 0.9221 -0.9221 0.3869 607.5837 -107.3051)" fill="#9EB6DE" width="0.6" height="66.4"/>
				
					<rect x="351.3" y="402.9" transform="matrix(0.9255 0.3788 -0.3788 0.9255 181.4049 -115.5914)" fill="#9EB6DE" width="66.4" height="0.6"/>
				
					<rect x="384.2" y="370" transform="matrix(0.9242 0.3819 -0.3819 0.9242 183.1567 -116.2737)" fill="#9EB6DE" width="0.6" height="66.4"/>
				
					<rect x="351.3" y="402.9" transform="matrix(0.3832 0.9237 -0.9237 0.3832 609.6426 -106.4004)" fill="#9EB6DE" width="66.4" height="0.6"/>
			</g>
			<g>
				<path fill="#174470" d="M384.5,361.6c-23,0-41.6,18.6-41.6,41.6c0,23,18.6,41.6,41.6,41.6c23,0,41.6-18.6,41.6-41.6
					C426.1,380.3,407.5,361.6,384.5,361.6z M384.5,436.5c-18.3,0-33.2-14.9-33.2-33.2c0-18.3,14.9-33.2,33.2-33.2
					c18.3,0,33.2,14.9,33.2,33.2C417.7,421.6,402.8,436.5,384.5,436.5z"/>
			</g>
			<g>
				<rect x="383.8" y="370" fill="#9EB6DE" width="1.3" height="66.4"/>
				<rect x="351.3" y="402.6" fill="#9EB6DE" width="66.4" height="1.3"/>
				
					<rect x="351.3" y="402.6" transform="matrix(0.7071 0.7071 -0.7071 0.7071 397.76 -153.7614)" fill="#9EB6DE" width="66.4" height="1.3"/>
				
					<rect x="383.8" y="370" transform="matrix(0.7071 0.7071 -0.7071 0.7071 397.76 -153.7614)" fill="#9EB6DE" width="1.3" height="66.4"/>
			</g>
		</g>
		<polygon fill="#9EB6DE" points="360.5,373.7 383.9,403.8 386.3,402.3 375.1,368.9 		"/>
		<circle fill="#174470" cx="384.5" cy="402.9" r="4.3"/>
		<path fill="#B8DAAB" d="M233.7,324.9H119.4c-2.8,0-5-2.2-5-5v0c0-2.8,2.2-5,5-5h114.3c2.8,0,5,2.2,5,5v0
			C238.7,322.7,236.5,324.9,233.7,324.9z"/>
		<path fill="#41B592" d="M380.7,344.8c-4.7,5.4-23.2,2.6-29.3,12.7c-6,10.1-12.9,31.4-20.7,32.3c-7.7,0.9-213.1,0-213.1,0v-64.9
			h117.1c0,0,11,41.3,18.4,47.4c7.4,6.1,58.4,2.6,66.8-2.6c6.9-4.2,13.2-16.6,13.9-31.5c0.2-3.3,0.1-6.7-0.4-10.2
			c-2.4-19.4-15.5-69.3-14.6-74.7c0.9-5.4,4.9-14.6,11.6-16.8c6.7-2.2,13.3-0.2,13.6,0c0.2,0.2,1.1,13.3,0,15.1
			c-1.1,1.7-5.2,3.9-5.2,7.5c0,3.7,24.1,42.2,32.3,55.7C379.4,328.5,385.5,339.5,380.7,344.8z"/>
		<ellipse fill="#B8DAAB" cx="344.1" cy="244.3" rx="5.3" ry="7.7"/>
		<path fill="#B8DAAB" d="M353.8,321.8c0,0,12.5,7.7,9.3,12.5c-3.2,4.7-13.8-0.2-15.9-6.2C345,322,350.3,319.3,353.8,321.8z"/>
		<path fill="#B8DAAB" d="M338.4,399.3c-2.4-3.2-3.7-10.2-2.3-13.8c3.2-8.3,11.3-20.3,24.7-29.1c19.4-12.6,45.8-3.9,51.4,1.5
			c3.6,3.5,6.6,9.7,5.2,14.8c-0.1,0.4-0.3,0.8-0.6,1c-0.3,0.2-0.7,0.2-1.1,0.2c-14.4,0.1-28.1-2.4-41.9,3.6
			c-18.9,8.2-30.5,28.2-32.9,25C340.1,401.5,339.2,400.4,338.4,399.3z"/>
		<g>
			<path fill="#FCD88C" d="M170.5,205.8H95.1c-2.3,0-4.1-1.8-4.1-4.1v-3.1c0-2.3,1.8-4.1,4.1-4.1h75.4c2.3,0,4.1,1.8,4.1,4.1v3.1
				C174.6,204,172.8,205.8,170.5,205.8z"/>
			<rect x="96.3" y="205.8" fill="#F19980" width="71.3" height="23.9"/>
			<path fill="#D85C3B" d="M139.2,214.9H125c-1.5,0-2.7-1.2-2.7-2.7l0,0c0-1.5,1.2-2.7,2.7-2.7h14.1c1.5,0,2.7,1.2,2.7,2.7l0,0
				C141.9,213.7,140.7,214.9,139.2,214.9z"/>
			<path fill="#D85C3B" d="M131.5,231.1L131.5,231.1c-2,0-3.7-1.6-3.7-3.7v-32.9c0-2,1.6-3.7,3.7-3.7l0,0c2,0,3.7,1.6,3.7,3.7v32.9
				C135.2,229.5,133.6,231.1,131.5,231.1z"/>
			<path fill="#FCD88C" d="M188,314.9H79.2c-3.6,0-6.5-2.9-6.5-6.5v-72.3c0-3.6,2.9-6.5,6.5-6.5H188c3.6,0,6.5,2.9,6.5,6.5v72.3
				C194.5,312,191.6,314.9,188,314.9z"/>
			<path fill="#F19980" d="M104,257H84c-1.3,0-2.4-1.1-2.4-2.4v-8.2c0-1.3,1.1-2.4,2.4-2.4h20c1.3,0,2.4,1.1,2.4,2.4v8.2
				C106.4,256,105.3,257,104,257z"/>
			<path fill="#F19980" d="M182.8,307.4h-36.6c-1.3,0-2.4-1.1-2.4-2.4v-19.7c0-1.3,1.1-2.4,2.4-2.4h36.6c1.3,0,2.4,1.1,2.4,2.4V305
				C185.1,306.3,184.1,307.4,182.8,307.4z"/>
			<path fill="#FFFFFF" d="M180.2,304.9h-31.5c-1.3,0-2.4-1.1-2.4-2.4v-14.8c0-1.3,1.1-2.4,2.4-2.4h31.5c1.3,0,2.4,1.1,2.4,2.4v14.8
				C182.5,303.9,181.5,304.9,180.2,304.9z"/>
			<path fill="#F19980" d="M102.4,283.7H83.6c-1.1,0-2-0.9-2-2l0,0c0-1.1,0.9-2,2-2h18.8c1.1,0,2,0.9,2,2l0,0
				C104.4,282.8,103.5,283.7,102.4,283.7z"/>
			<path fill="#F19980" d="M92,293.4h-8.4c-1.1,0-2-0.9-2-2l0,0c0-1.1,0.9-2,2-2H92c1.1,0,2,0.9,2,2l0,0
				C94,292.5,93.1,293.4,92,293.4z"/>
			<path fill="#F19980" d="M181.8,247.7h-31.4c-1.1,0-2-0.9-2-2l0,0c0-1.1,0.9-2,2-2h31.4c1.1,0,2,0.9,2,2l0,0
				C183.8,246.8,182.9,247.7,181.8,247.7z"/>
			<path fill="#F19980" d="M165.7,257.4h-15.2c-1.1,0-2-0.9-2-2l0,0c0-1.1,0.9-2,2-2h15.2c1.1,0,2,0.9,2,2l0,0
				C167.7,256.5,166.8,257.4,165.7,257.4z"/>
			<path fill="#F19980" d="M131.5,327.2L131.5,327.2c-2,0-3.7-1.6-3.7-3.7v-91.7c0-2,1.6-3.7,3.7-3.7l0,0c2,0,3.7,1.6,3.7,3.7v91.7
				C135.2,325.6,133.6,327.2,131.5,327.2z"/>
		</g>
		<path fill="#259E8D" d="M318.6,244.3l11.7-0.3c0.5,0,0.9,0.4,0.9,0.8v0.3c0,0.5-0.4,0.8-0.8,0.8h-11.7c-0.5,0-0.8-0.4-0.8-0.8v0
			C317.8,244.6,318.1,244.3,318.6,244.3z"/>
		<path fill="#259E8D" d="M117.7,331.9h90.6c2.5,0,4.6,1.7,5.2,4.2l11.8,54H123.1L117.7,331.9z"/>
		<path fill="#B8DAAB" d="M223.5,398.5h-104c-3.6,0-6.5-2.9-6.5-6.5v-14.2c0-3.6,2.9-6.5,6.5-6.5h104c3.6,0,6.5,2.9,6.5,6.5v14.2
			C230,395.6,227.1,398.5,223.5,398.5z"/>
		<g>
			<path fill="#F19980" d="M207.7,345.2v56.2c0,5-4,9-9,9H98.3c-5,0-9-4-9-9v-56.2c0-5,4-9,9-9h100.4
				C203.7,336.2,207.7,340.2,207.7,345.2z"/>
			<path fill="#D85C3B" d="M207.7,347.4v8.5c0,10.9-8.8,19.8-19.7,19.8h-79.1c-10.9,0-19.7-8.9-19.7-19.8v-8.5c0-5,4-9.1,9-9.1
				h100.4C203.7,338.3,207.7,342.4,207.7,347.4z"/>
			<g>
				<path fill="#D85C3B" d="M105.8,403.2H97c-0.9,0-1.6-0.7-1.6-1.6l0,0c0-0.9,0.7-1.6,1.6-1.6h8.7c0.9,0,1.6,0.7,1.6,1.6l0,0
					C107.3,402.5,106.6,403.2,105.8,403.2z"/>
				<path fill="#D85C3B" d="M121.5,403.2h-8.7c-0.9,0-1.6-0.7-1.6-1.6l0,0c0-0.9,0.7-1.6,1.6-1.6h8.7c0.9,0,1.6,0.7,1.6,1.6l0,0
					C123.1,402.5,122.4,403.2,121.5,403.2z"/>
				<path fill="#D85C3B" d="M137.2,403.2h-8.7c-0.9,0-1.6-0.7-1.6-1.6l0,0c0-0.9,0.7-1.6,1.6-1.6h8.7c0.9,0,1.6,0.7,1.6,1.6l0,0
					C138.8,402.5,138.1,403.2,137.2,403.2z"/>
				<path fill="#D85C3B" d="M152.9,403.2h-8.7c-0.9,0-1.6-0.7-1.6-1.6l0,0c0-0.9,0.7-1.6,1.6-1.6h8.7c0.9,0,1.6,0.7,1.6,1.6l0,0
					C154.5,402.5,153.8,403.2,152.9,403.2z"/>
				<path fill="#D85C3B" d="M168.7,403.2h-8.7c-0.9,0-1.6-0.7-1.6-1.6l0,0c0-0.9,0.7-1.6,1.6-1.6h8.7c0.9,0,1.6,0.7,1.6,1.6l0,0
					C170.2,402.5,169.5,403.2,168.7,403.2z"/>
				<path fill="#D85C3B" d="M184.4,403.2h-8.7c-0.9,0-1.6-0.7-1.6-1.6l0,0c0-0.9,0.7-1.6,1.6-1.6h8.7c0.9,0,1.6,0.7,1.6,1.6l0,0
					C186,402.5,185.3,403.2,184.4,403.2z"/>
				<path fill="#D85C3B" d="M200.1,403.2h-8.7c-0.9,0-1.6-0.7-1.6-1.6l0,0c0-0.9,0.7-1.6,1.6-1.6h8.7c0.9,0,1.6,0.7,1.6,1.6l0,0
					C201.7,402.5,201,403.2,200.1,403.2z"/>
			</g>
			<path fill="#FCD88C" d="M207.7,345.2v8.4c0,10.9-8.8,19.7-19.7,19.7h-79.1c-10.9,0-19.7-8.8-19.7-19.7v-8.4c0-5,4-9,9-9h100.4
				C203.7,336.2,207.7,340.2,207.7,345.2z"/>
			<g>
				<path fill="#F19980" d="M204.3,354.2c-0.8,0-1.5-0.7-1.5-1.5v-5.9c0-0.8,0.7-1.5,1.5-1.5c0.8,0,1.5,0.7,1.5,1.5v5.9
					C205.8,353.6,205.1,354.2,204.3,354.2z"/>
				<path fill="#F19980" d="M178.3,371.5h-11.9c-0.8,0-1.5-0.7-1.5-1.5c0-0.8,0.7-1.5,1.5-1.5h11.9c0.8,0,1.5,0.7,1.5,1.5
					C179.8,370.8,179.1,371.5,178.3,371.5z M154.5,371.5h-11.9c-0.8,0-1.5-0.7-1.5-1.5c0-0.8,0.7-1.5,1.5-1.5h11.9
					c0.8,0,1.5,0.7,1.5,1.5C155.9,370.8,155.3,371.5,154.5,371.5z M130.6,371.5h-11.9c-0.8,0-1.5-0.7-1.5-1.5c0-0.8,0.7-1.5,1.5-1.5
					h11.9c0.8,0,1.5,0.7,1.5,1.5C132,370.8,131.4,371.5,130.6,371.5z M106.7,371c-0.1,0-0.2,0-0.3,0c-4.3-0.9-8.2-3.2-11-6.3
					c-0.5-0.6-0.5-1.5,0.1-2.1c0.6-0.5,1.5-0.5,2.1,0.1c2.4,2.6,5.7,4.5,9.4,5.3c0.8,0.2,1.3,1,1.1,1.7
					C108,370.6,107.4,371,106.7,371z M190.2,371c-0.7,0-1.3-0.5-1.4-1.2c-0.2-0.8,0.3-1.6,1.1-1.7c3.7-0.8,7.1-2.7,9.4-5.4
					c0.5-0.6,1.5-0.7,2.1-0.1c0.6,0.5,0.7,1.5,0.1,2.1c-2.8,3.1-6.7,5.3-11,6.3C190.4,371,190.3,371,190.2,371z"/>
				<path fill="#F19980" d="M92.6,354.2c-0.8,0-1.5-0.7-1.5-1.5v-5.9c0-0.8,0.7-1.5,1.5-1.5c0.8,0,1.5,0.7,1.5,1.5v5.9
					C94.1,353.6,93.4,354.2,92.6,354.2z"/>
			</g>
			<path fill="#FFFFFF" d="M152,377.1h-6.8c-1.8,0-3.3-1.5-3.3-3.3l0,0c0-1.8,1.5-3.3,3.3-3.3h6.8c1.8,0,3.3,1.5,3.3,3.3l0,0
				C155.3,375.6,153.8,377.1,152,377.1z"/>
		</g>
		<g opacity="0.39">
			<path fill="#B8DAAB" d="M338.8,265.1c2.5,3.2,33.6,52.6,31.1,52.8c-2.5,0.2-13.2-3.8-17.3-7.6
				C348.5,306.6,338.8,265.1,338.8,265.1z"/>
		</g>
		<path fill="#259E8D" d="M334.6,338.4c0,0-1.3,27.5-7.1,33.1c-5.8,5.5-68.2,9.4-74.8,7.9c-6.5-1.5-22.7-50.8-22.7-50.8H117.7v-3.6
			h117.1c0,0,11,41.3,18.4,47.4c7.4,6.1,58.4,2.6,66.8-2.6c6.9-4.2,13.2-16.6,13.9-31.5L334.6,338.4z"/>
	</g>
	<g>
		<path fill="#41B592" d="M441.4,118.8v96.9c0,2.4-1.9,4.3-4.1,4.3H305.8c-1.2,0-2.2-0.5-3-1.3c-0.7-0.8-1.2-1.8-1.2-3v-96.9
			c0-1.2,0.4-2.2,1.2-3c0.8-0.8,1.8-1.3,3-1.3h131.5C439.6,114.5,441.4,116.4,441.4,118.8z"/>
		<path fill="#EFF4FA" d="M436.9,123.5v87.9c0,2.1-1.7,3.9-3.9,3.9H310.1c-1.1,0-2.1-0.5-2.8-1.2c-0.7-0.7-1.1-1.6-1.1-2.7v-87.9
			c0-1,0.4-2,1.1-2.7c0.7-0.7,1.7-1.2,2.8-1.2H433C435.2,119.6,436.9,121.4,436.9,123.5z"/>
		<path fill="#FFFFFF" d="M391.8,146l-16.6,14.8l0,0l-22,19.4l46.8,35.1h-8l-42.5-31.9l-36.3,31.9h-3.1c-1.1,0-2.1-0.5-2.8-1.2
			l60.4-53.2l-51.5-41.3h7.6l47.5,38.1l43-38.1h7.2l-26.1,23.1l41.4,28.2v5.8L391.8,146z"/>
		<path fill="#D8E3F3" d="M370.5,178.1l20.9-18.8c0.6-0.5,1.4-0.6,2-0.1l32.9,23.4c0.8,0.6,0.9,1.8,0.2,2.5L405,206.4
			c-0.6,0.6-1.5,0.6-2.2,0.1l-32.2-26C369.8,179.9,369.8,178.7,370.5,178.1z"/>
		<path fill="#71BF86" d="M330.1,212.4l20.2-17.1c0.6-0.5,1.4-0.5,2-0.1l22.8,17.1c1.2,0.9,0.6,2.9-1,2.9h-43
			C329.6,215.3,328.9,213.4,330.1,212.4z"/>
		<path fill="#D8E3F3" d="M336.3,150.4l-27.5,20c-1.1,0.8-2.6,0-2.6-1.3v-45.5c0,0,0,0,0,0c0-1.4,1.7-2.1,2.7-1.1l27.5,25.5
			C337.2,148.6,337.1,149.8,336.3,150.4z"/>
		<g>
			<path fill="#71BF86" d="M346,171.6l-10-11c-0.6-0.6-1.6-0.7-2.2-0.2l-10.2,8.1c-0.7,0.6-0.8,1.7-0.2,2.4l10.3,11.2
				c0.6,0.6,1.6,0.7,2.2,0.1l9.8-8.3C346.5,173.3,346.6,172.3,346,171.6z"/>
			<path fill="#71BF86" d="M349.6,170.7l7.2-6.1c0.8-0.6,0.8-1.8,0-2.5l-11.2-9.5c-0.6-0.5-1.5-0.5-2.1,0l-5.9,4.7
				c-0.7,0.6-0.8,1.7-0.2,2.4c3.2,3.5,6.8,7.4,10,10.9C348,171.2,349,171.3,349.6,170.7z"/>
			<path fill="#71BF86" d="M317.9,173.1l-11.1,8.9c-0.4,0.3-0.6,0.8-0.6,1.3l0,20.7c0,1.4,1.6,2.1,2.7,1.2l21.7-18.4
				c0.7-0.6,0.8-1.7,0.1-2.4l-10.7-11.1C319.5,172.7,318.6,172.6,317.9,173.1z"/>
		</g>
		<path fill="#D8E3F3" d="M402.3,122.5c-11.2,9.4-25.8,21.7-29.7,25c-0.6,0.5-1.5,0.5-2.1,0l-30.8-25c-1.2-1-0.5-2.9,1-2.9h60.5
			C402.8,119.6,403.5,121.5,402.3,122.5z"/>
		<path fill="#71BF86" d="M436.9,121.3v38.4c0,1.3-1.5,2.1-2.5,1.3c-8.5-5.7-23.3-15.5-28.3-18.8c-0.9-0.6-1-1.8-0.2-2.6
			c3.9-3.6,14.6-13.5,21.5-19.6c0.3-0.3,0.7-0.4,1.1-0.4h6.9C436.2,119.6,436.9,120.4,436.9,121.3z"/>
		<path fill="#41B592" d="M371.8,95c-23.1,0-7.4,28.8-1.8,38c0.8,1.3,2.7,1.3,3.5,0C378.9,123.7,393.9,95,371.8,95z M371.6,113.2
			c-2.9,0-5.2-2.3-5.2-5.2c0-2.9,2.3-5.2,5.2-5.2c2.9,0,5.2,2.3,5.2,5.2C376.7,110.9,374.4,113.2,371.6,113.2z"/>
	</g>
	<path fill="#9EB6DE" d="M470.7,452.4H31.9c-1.3,0-2.4-1.1-2.4-2.4v-2.8c0-1.3,1.1-2.4,2.4-2.4h438.8c1.3,0,2.4,1.1,2.4,2.4v2.8
		C473,451.4,472,452.4,470.7,452.4z"/>
	<path fill="#EFF4FA" d="M283.5,473H70.9c-1.3,0-2.4-1.1-2.4-2.4v-2.8c0-1.3,1.1-2.4,2.4-2.4h212.5c1.3,0,2.4,1.1,2.4,2.4v2.8
		C285.8,471.9,284.8,473,283.5,473z"/>
	<path fill="#EFF4FA" d="M428.6,473H311.5c-1.3,0-2.4-1.1-2.4-2.4v-2.8c0-1.3,1.1-2.4,2.4-2.4h117.1c1.3,0,2.4,1.1,2.4,2.4v2.8
		C430.9,471.9,429.9,473,428.6,473z"/>
	<path fill="#EFF4FA" d="M323.5,493.5H206.4c-1.3,0-2.4-1.1-2.4-2.4v-2.8c0-1.3,1.1-2.4,2.4-2.4h117.1c1.3,0,2.4,1.1,2.4,2.4v2.8
		C325.9,492.5,324.8,493.5,323.5,493.5z"/>
	<path fill="#F2A284" d="M298.3,241.1c0,0,3.6-0.2,7.3-3.5c3.6-3.3,14.2-0.5,16,2.1c1.8,2.6-2.1,8.8-3.9,8.4
		c-1.8-0.5,0.3-1.7,0.9-2.9c0.6-1.1,0.7-2.3-0.2-3.1c-0.9-0.8-1.4,2.1-3.7,3.2c-2.3,1.1-7.2,2.4-9.7,1.4c-2.4-1-6.3-0.1-6.3-0.1
		L298.3,241.1z"/>
	<circle fill="#B8DAAB" cx="318.7" cy="245.2" r="3.3"/>
</g>
</svg>
